<svg xmlns="http://www.w3.org/2000/svg" xmlns:xlink="http://www.w3.org/1999/xlink" viewBox="0,0,256,256" width="150px" height="150px" fill-rule="nonzero"><g fill="#ffffff" fill-rule="nonzero" stroke="none" stroke-width="1" stroke-linecap="butt" stroke-linejoin="miter" stroke-miterlimit="10" stroke-dasharray="" stroke-dashoffset="0" font-family="none" font-weight="none" font-size="none" text-anchor="none" style="mix-blend-mode: normal"><g transform="scale(5.12,5.12)"><path d="M4,4c-0.72266,-0.01172 -1.39062,0.36719 -1.75391,0.99219c-0.36719,0.62109 -0.36719,1.39453 0,2.01563c0.36328,0.625 1.03125,1.00391 1.75391,0.99219h25c2.23438,0 4,1.76563 4,4v27.17188l-7.58594,-7.58594c-0.37891,-0.38672 -0.89453,-0.60547 -1.43359,-0.60547c-0.81641,0 -1.54687,0.49609 -1.85156,1.25c-0.30859,0.75391 -0.125,1.61719 0.45703,2.18359l12.41406,12.41406l12.41406,-12.41406c0.52344,-0.5 0.73438,-1.24609 0.55078,-1.94922c-0.18359,-0.69922 -0.73047,-1.24609 -1.42969,-1.42969c-0.70312,-0.18359 -1.44922,0.02734 -1.94922,0.55078l-7.58594,7.58594v-27.17187c0,-4.39453 -3.60547,-8 -8,-8z"></path></g></g></svg>