<svg xmlns="http://www.w3.org/2000/svg" xmlns:xlink="http://www.w3.org/1999/xlink" viewBox="0,0,256,256" width="100px" height="100px" fill-rule="nonzero"><g fill="#ffffff" fill-rule="nonzero" stroke="none" stroke-width="1" stroke-linecap="butt" stroke-linejoin="miter" stroke-miterlimit="10" stroke-dasharray="" stroke-dashoffset="0" font-family="none" font-weight="none" font-size="none" text-anchor="none" style="mix-blend-mode: normal"><g transform="scale(5.12,5.12)"><path d="M3,5c-0.35937,-0.00391 -0.69531,0.18359 -0.87891,0.49609c-0.17969,0.3125 -0.17969,0.69531 0,1.00781c0.18359,0.3125 0.51953,0.5 0.87891,0.49609h26c2.77344,0 5,2.22656 5,5v30.58594l-10.29297,-10.29297c-0.1875,-0.19531 -0.44531,-0.30078 -0.71875,-0.30469c-0.40625,0.00391 -0.76953,0.25 -0.92578,0.625c-0.15234,0.37891 -0.0625,0.80859 0.23047,1.09375l11.91016,11.91406c0.05859,0.07031 0.12109,0.13281 0.19141,0.19141l0.60547,0.60156l0.60938,-0.60547c0.06641,-0.05469 0.12891,-0.11719 0.18359,-0.18359c0,-0.00391 0.00391,-0.00391 0.00391,-0.00781l11.91016,-11.91016c0.26172,-0.25 0.36719,-0.625 0.27344,-0.97266c-0.08984,-0.35156 -0.36328,-0.625 -0.71484,-0.71484c-0.34766,-0.09375 -0.72266,0.01172 -0.97266,0.27344l-10.29297,10.29297v-30.58594c0,-3.85547 -3.14453,-7 -7,-7z"></path></g></g></svg>