<svg xmlns="http://www.w3.org/2000/svg" xmlns:xlink="http://www.w3.org/1999/xlink" viewBox="0,0,256,256" width="300px" height="300px" fill-rule="nonzero"><g fill="#00ffdc" fill-rule="nonzero" stroke="none" stroke-width="1" stroke-linecap="butt" stroke-linejoin="miter" stroke-miterlimit="10" stroke-dasharray="" stroke-dashoffset="0" font-family="none" font-weight="none" font-size="none" text-anchor="none" style="mix-blend-mode: normal"><g transform="scale(1.70667,1.70667)"><path d="M100.348,55.922l-1.494,1.881c6.55,5.202 5.268,16.78 4.027,27.976c-0.866,7.813 -1.747,15.8 0.121,21.733c0.082,0.258 -0.226,0.463 -0.432,0.288c-11.344,-9.64 -13.969,-22.524 -16.957,-37.233c-3.741,-18.412 -7.981,-39.279 -31.435,-57.419l-1.469,1.9c22.746,17.593 26.892,37.996 30.55,55.997c2.424,11.928 4.754,23.361 12.121,32.727c0.119,0.152 -0.054,0.358 -0.22,0.259c-27.035,-16.111 -58.928,-37.083 -78.673,-82.014l-2.199,0.966c21.403,48.704 56.726,69.579 85.109,86.352c16.396,9.69 30.582,18.073 38.567,29.676c0.148,0.215 0.439,0.272 0.656,0.126l1.126,-0.757c0.263,-0.176 0.333,-0.535 0.153,-0.795c-6.806,-9.854 -17.715,-17.344 -30.593,-25.142c-6.493,-4.256 -5.302,-15.012 -4.039,-26.399c1.313,-11.845 2.671,-24.094 -4.919,-30.122z"></path><circle cx="14.081" cy="20.868" r="4.081"></circle><circle cx="19.162" cy="38.621" r="3.365"></circle><circle cx="68.448" cy="35.09" r="2.93"></circle><circle cx="107.193" cy="65.359" r="2.93"></circle><circle cx="59.156" cy="22.351" r="2.929"></circle><circle cx="65.388" cy="19.442" r="2.929"></circle><circle cx="30.006" cy="41.412" r="3.365"></circle><circle cx="33.751" cy="63.132" r="4.207"></circle><circle cx="49.615" cy="65.585" r="4.207"></circle><circle cx="47.438" cy="76.681" r="4.207"></circle><circle cx="68.323" cy="84.04" r="4.207"></circle><circle cx="108.257" cy="82.104" r="4.207"></circle><circle cx="83.906" cy="47.845" r="4.207"></circle><circle cx="98.852" cy="55.45" r="4.207"></circle><circle cx="64.529" cy="91.054" r="3.503"></circle><circle cx="79.088" cy="65.302" r="3.503"></circle><circle cx="98.657" cy="83.669" r="3.503"></circle><circle cx="73.178" cy="29.213" r="3.503"></circle><circle cx="99.379" cy="68.138" r="4.329"></circle><circle cx="53.268" cy="14.285" r="3.503"></circle><circle cx="80.167" cy="102.188" r="4.311"></circle></g></g></svg>