<svg xmlns="http://www.w3.org/2000/svg" xmlns:xlink="http://www.w3.org/1999/xlink" viewBox="0,0,256,256" width="144px" height="144px" fill-rule="nonzero"><g fill="none" fill-rule="nonzero" stroke="#00ffdc" stroke-width="3" stroke-linecap="round" stroke-linejoin="round" stroke-miterlimit="10" stroke-dasharray="" stroke-dashoffset="0" font-family="none" font-weight="none" font-size="none" text-anchor="none" style="mix-blend-mode: normal"><g transform="scale(5.33333,5.33333)"><path d="M12.36,24.3c4.23,-4.34 8.83,-3.18 11.64,-0.3c2.81,2.88 3.95,7.59 -0.28,11.93c-4.23,4.34 -12.24,6.67 -15.04,3.8c-2.81,-2.87 -0.55,-11.08 3.68,-15.43z"></path><path d="M31.03,7.87c3.35,-1.18 6.68,-1.25 8.3,0.4c2.81,2.87 0.54,11.08 -3.69,15.43c-4.23,4.34 -8.83,3.17 -11.64,0.3c-2.81,-2.87 -3.95,-7.59 0.28,-11.93c0.66,-0.68 1.41,-1.31 2.22,-1.87"></path><path d="M24.05,35.38c-4.04,-4.16 -2.86,-8.63 -0.05,-11.38c2.87,-2.81 7.59,-3.95 11.93,0.28c4.34,4.23 6.67,12.24 3.8,15.04c-1.6,1.56 -4.86,1.55 -8.18,0.51"></path><path d="M23.7,12.36c4.34,4.23 3.18,8.83 0.3,11.64c-2.88,2.81 -7.59,3.95 -11.93,-0.28c-4.34,-4.23 -6.68,-12.24 -3.8,-15.05c2.88,-2.81 11.08,-0.54 15.43,3.69"></path></g></g></svg>