<svg xmlns="http://www.w3.org/2000/svg" xmlns:xlink="http://www.w3.org/1999/xlink" viewBox="0,0,256,256" width="250px" height="250px" fill-rule="nonzero"><g fill="#00ffdc" fill-rule="nonzero" stroke="none" stroke-width="1" stroke-linecap="butt" stroke-linejoin="miter" stroke-miterlimit="10" stroke-dasharray="" stroke-dashoffset="0" font-family="none" font-weight="none" font-size="none" text-anchor="none" style="mix-blend-mode: normal"><g transform="scale(5.12,5.12)"><path d="M38.68945,3.87695c-3.92,0.003 -8.79266,1.93077 -12.34766,4.75977c1.739,2.197 2.69236,4.99597 2.69336,8.04297c0.001,1.841 -0.34694,3.65095 -0.96094,5.25195c3.91,-1.568 9.16656,-1.69873 13.22656,1.19727c4.027,-5.596 5.99059,-13.93717 2.55859,-17.45117c-1.151,-1.179 -2.93611,-1.80078 -5.16211,-1.80078zM11.33203,4.38086c-2.30273,-0.06629 -4.32462,0.46039 -5.65625,1.75977c-1.18,1.153 -1.80278,2.93992 -1.80078,5.16992c0.003,3.92 1.93272,8.79366 4.76172,12.34766c2.198,-1.738 4.99502,-2.69136 8.04102,-2.69336h0.00977c1.878,0 3.7207,0.36395 5.3457,1.00195c-1.453,-3.845 -1.53005,-9.07825 1.25195,-13.15625c-3.4975,-2.56375 -8.11524,-4.31921 -11.95312,-4.42969zM24.89258,10.03711c-2.84,4.293 -2.086,10.25239 0.125,13.40039c1.245,-1.701 2.01958,-4.22081 2.01758,-6.75781c-0.002,-2.517 -0.76058,-4.82058 -2.14258,-6.64258zM33.80273,22.84766c-2.77179,-0.01015 -5.45453,0.86975 -7.24609,2.16406c1.7,1.247 4.21881,2.02344 6.75781,2.02344h0.00781c2.55,-0.002 4.88089,-0.77931 6.71289,-2.19531c-0.016,-0.016 -0.03088,-0.03674 -0.04687,-0.05273c0.022,-0.025 0.04245,-0.05117 0.06445,-0.07617c-1.88519,-1.30769 -4.09416,-1.85539 -6.25,-1.86328zM16.67773,22.96484c-2.516,0.002 -4.81863,0.76058 -6.64063,2.14258c4.293,2.84 10.25139,2.085 13.40039,-0.125c-1.699,-1.243 -4.216,-2.01758 -6.75,-2.01758zM41.36328,26.3418c-2.197,1.738 -4.99306,2.69041 -8.03906,2.69141h-0.00977c-1.879,0 -3.7217,-0.36395 -5.3457,-1.00195c1.454,3.848 1.5117,9.08016 -1.2793,13.16016c3.612,2.651 8.4248,4.43555 12.3418,4.43555c2.152,0 4.03397,-0.53953 5.29297,-1.76953c1.18,-1.152 1.80278,-2.93892 1.80078,-5.16992c-0.003,-3.919 -1.93272,-8.7907 -4.76172,-12.3457zM24.99219,26.57813c-1.06,1.528 -1.69927,3.76934 -1.69727,6.15234c0.001,1.602 0.30034,4.37711 2.02734,6.91211c2.591,-4.259 1.81792,-9.99145 -0.33008,-13.06445zM8.82031,26.70313c-4.109,5.596 -6.14769,14.06914 -2.67969,17.61914c1.151,1.18 2.93611,1.80273 5.16211,1.80273h0.00781c4.03,-0.002 9.06363,-2.04005 12.64063,-4.99805c-1.711,-2.33 -2.65425,-5.23448 -2.65625,-8.39648c-0.001,-1.721 0.27897,-3.36741 0.79297,-4.81641c-1.677,0.652 -3.62086,1.05078 -5.63086,1.05078c-2.61,0 -5.30772,-0.67372 -7.63672,-2.26172z"></path></g></g></svg>