<svg xmlns="http://www.w3.org/2000/svg" xmlns:xlink="http://www.w3.org/1999/xlink" viewBox="0,0,256,256" width="128px" height="128px" fill-rule="nonzero"><g fill="#00ffdc" fill-rule="nonzero" stroke="none" stroke-width="1" stroke-linecap="butt" stroke-linejoin="miter" stroke-miterlimit="10" stroke-dasharray="" stroke-dashoffset="0" font-family="none" font-weight="none" font-size="none" text-anchor="none" style="mix-blend-mode: normal"><g transform="scale(2,2)"><path d="M44.11719,20.99023c-0.6748,-0.03125 -1.35547,0.17188 -1.91797,0.60938l-40,30c-0.8,0.6 -1.19922,1.50039 -1.19922,2.40039v50c0,1.7 1.3,3 3,3h50c1.3,0 2.40078,-0.79961 2.80078,-2.09961l5.29883,-15.80078c0.4,-1.2 1.50039,-1.40039 1.90039,-1.40039c0.4,0 1.50039,0.10039 1.90039,1.40039l5.29883,15.80078c0.4,1.2 1.60078,2.09961 2.80078,2.09961h50c1.7,0 3,-1.3 3,-3v-50c0,-0.9 -0.39922,-1.80039 -1.19922,-2.40039l-40,-30c-0.9,-0.7 -2.10156,-0.79883 -3.10156,-0.29883c-1,0.5 -1.69922,1.49922 -1.69922,2.69922v18c0,1.7 1.3,3 3,3c1.7,0 3,-1.3 3,-3v-12l28,21h-102l28,-21v12c0,1.7 1.3,3 3,3c1.7,0 3,-1.3 3,-3v-18c0,-1.1 -0.59922,-2.19922 -1.69922,-2.69922c-0.375,-0.1875 -0.77871,-0.2918 -1.18359,-0.31055zM7,57h114v44h-44.80078l-4.59961,-13.69922c-1.1,-3.3 -4.09961,-5.5 -7.59961,-5.5c-3.5,0 -6.49961,2.1 -7.59961,5.5l-4.59961,13.69922h-44.80078zM19,66c-1.7,0 -3,1.3 -3,3v20c0,1.7 1.3,3 3,3h24.90039c1.3,0 2.39883,-0.8 2.79883,-2l6.90039,-20c0.7,-1.9 -0.79883,-4 -2.79883,-4zM77.19922,66c-2.1,0 -3.49883,2 -2.79883,4l6.90039,20c0.4,1.2 1.59883,2 2.79883,2h24.90039c1.7,0 3,-1.3 3,-3v-20c0,-1.7 -1.3,-3 -3,-3z"></path></g></g></svg>