<svg xmlns="http://www.w3.org/2000/svg" xmlns:xlink="http://www.w3.org/1999/xlink" viewBox="0,0,256,256" width="90px" height="90px" fill-rule="nonzero"><g fill="#ffffff" fill-rule="nonzero" stroke="none" stroke-width="1" stroke-linecap="butt" stroke-linejoin="miter" stroke-miterlimit="10" stroke-dasharray="" stroke-dashoffset="0" font-family="none" font-weight="none" font-size="none" text-anchor="none" style="mix-blend-mode: normal"><g transform="scale(8.53333,8.53333)"><path d="M14.98438,0.98633c-0.55152,0.00862 -0.99193,0.46214 -0.98437,1.01367v23.58594l-3.29297,-3.29297c-0.18827,-0.19353 -0.44679,-0.30272 -0.7168,-0.30273c-0.40692,0.00011 -0.77321,0.24676 -0.92633,0.62377c-0.15312,0.37701 -0.06255,0.80921 0.22907,1.09303l4.91211,4.91211c0.18864,0.24753 0.48176,0.39314 0.79298,0.3939c0.31122,0.00077 0.60505,-0.1434 0.79491,-0.39c0.00131,-0.00195 0.00261,-0.0039 0.00391,-0.00586l4.91016,-4.91016c0.26124,-0.25082 0.36648,-0.62327 0.27512,-0.97371c-0.09136,-0.35044 -0.36503,-0.62411 -0.71547,-0.71547c-0.35044,-0.09136 -0.72289,0.01388 -0.97371,0.27512l-3.29297,3.29297v-23.58594c0.0037,-0.2703 -0.10218,-0.53059 -0.29351,-0.72155c-0.19133,-0.19097 -0.45182,-0.29634 -0.72212,-0.29212z"></path></g></g></svg>