<svg xmlns="http://www.w3.org/2000/svg" xmlns:xlink="http://www.w3.org/1999/xlink" viewBox="0,0,256,256" width="128px" height="128px" fill-rule="nonzero"><g fill="#00ffdc" fill-rule="nonzero" stroke="none" stroke-width="1" stroke-linecap="butt" stroke-linejoin="miter" stroke-miterlimit="10" stroke-dasharray="" stroke-dashoffset="0" font-family="none" font-weight="none" font-size="none" text-anchor="none" style="mix-blend-mode: normal"><g transform="scale(3.55556,3.55556)"><path d="M44.82,21.22c0,1.98 -0.59,4.34 -1.73,6.37c-1.82,-1.53 -4.12,-2.48 -6.64,-2.58c-1.437,-3.034 -4.575,-6.743 -8.29,-8.2c1.43,-3.49 4.17,-6.93 6.71,-8.66c0.261,-0.185 1.28,-0.692 2.26,0c3.64,2.48 7.69,8.46 7.69,13.07zM27.61,20.972c1.715,0.99 3.464,2.681 4.652,4.683c-2.235,0.811 -4.208,2.328 -5.554,4.461c-3.346,-0.272 -8.127,0.591 -11.246,3.079c-2.307,-2.984 -3.916,-7.076 -4.145,-10.141c-0.029,-0.319 0.041,-1.455 1.13,-1.957c3.967,-1.913 11.171,-2.43 15.163,-0.125zM18.79,35.752c1.715,-0.99 4.054,-1.659 6.382,-1.687c-0.415,2.341 -0.088,4.808 1.086,7.041c-1.909,2.762 -3.552,7.334 -2.956,11.279c-3.738,0.506 -8.087,-0.146 -10.855,-1.481c-0.291,-0.134 -1.239,-0.763 -1.13,-1.957c0.327,-4.393 3.481,-10.89 7.473,-13.195zM27.18,50.78c0,-1.98 0.59,-4.34 1.73,-6.37c1.82,1.53 4.12,2.48 6.64,2.58c1.437,3.034 4.575,6.743 8.29,8.2c-1.43,3.49 -4.17,6.93 -6.71,8.66c-0.261,0.185 -1.28,0.692 -2.26,0c-3.64,-2.48 -7.69,-8.46 -7.69,-13.07zM44.39,51.028c-1.715,-0.99 -3.464,-2.681 -4.652,-4.683c2.235,-0.811 4.208,-2.328 5.554,-4.461c3.346,0.272 8.127,-0.591 11.246,-3.079c2.307,2.984 3.916,7.076 4.145,10.141c0.029,0.319 -0.041,1.455 -1.13,1.957c-3.967,1.913 -11.171,2.43 -15.163,0.125zM53.21,36.248c-1.715,0.99 -4.054,1.659 -6.382,1.687c0.415,-2.341 0.088,-4.808 -1.086,-7.041c1.909,-2.762 3.552,-7.334 2.956,-11.279c3.738,-0.506 8.087,0.146 10.855,1.481c0.291,0.134 1.239,0.763 1.13,1.957c-0.327,4.393 -3.481,10.89 -7.473,13.195zM43,36c0,3.866 -3.134,7 -7,7c-3.866,0 -7,-3.134 -7,-7c0,-3.866 3.134,-7 7,-7c3.866,0 7,3.134 7,7z"></path></g></g></svg>