<svg xmlns="http://www.w3.org/2000/svg" xmlns:xlink="http://www.w3.org/1999/xlink" viewBox="0,0,256,256" width="96px" height="96px" fill-rule="nonzero"><g fill="#01ffb4" fill-rule="nonzero" stroke="none" stroke-width="1" stroke-linecap="butt" stroke-linejoin="miter" stroke-miterlimit="10" stroke-dasharray="" stroke-dashoffset="0" font-family="none" font-weight="none" font-size="none" text-anchor="none" style="mix-blend-mode: normal"><g transform="scale(8,8)"><path d="M16,3.5l-0.625,0.6875c-0.02344,0.01953 -0.04297,0.03906 -0.0625,0.0625l-0.0625,0.0625c-0.02344,0.03125 -0.04297,0.0625 -0.0625,0.09375l-9.71875,10.65625c-0.27734,0.12109 -0.48437,0.36328 -0.5625,0.65625l-0.25,0.28125l0.25,0.28125c0.08594,0.30078 0.30469,0.54297 0.59375,0.65625l9.53125,10.5c0,0.01172 0,0.01953 0,0.03125c0.09375,0.25 0.28516,0.45313 0.53125,0.5625l0.4375,0.46875l0.4375,-0.5c0.01953,-0.00781 0.04297,-0.01953 0.0625,-0.03125l0.03125,-0.03125c0.16016,-0.09766 0.28906,-0.23828 0.375,-0.40625c0,-0.01172 0,-0.01953 0,-0.03125l9.84375,-10.8125v-0.03125c0.02344,-0.01953 0.04297,-0.03906 0.0625,-0.0625l0.53125,-0.59375l-0.5,-0.5625c-0.02734,-0.04297 -0.05859,-0.08594 -0.09375,-0.125l-9.875,-10.84375c-0.00781,-0.01953 -0.01953,-0.04297 -0.03125,-0.0625l-0.03125,-0.03125c-0.03906,-0.04687 -0.07812,-0.08594 -0.125,-0.125zM15.3125,7.25l1.46875,9.5l-8.78125,-1.4375zM17.5,8.15625l6.625,7.28125l-5.28125,1.34375zM8.71875,17.46875l8.0625,1.34375l-1.34375,6.09375zM23,17.78125l-5.21875,5.75l1.0625,-4.6875z"></path></g></g></svg>