<svg xmlns="http://www.w3.org/2000/svg" xmlns:xlink="http://www.w3.org/1999/xlink" viewBox="0,0,256,256" width="100px" height="100px" fill-rule="nonzero"><g fill="#ffffff" fill-rule="nonzero" stroke="none" stroke-width="1" stroke-linecap="butt" stroke-linejoin="miter" stroke-miterlimit="10" stroke-dasharray="" stroke-dashoffset="0" font-family="none" font-weight="none" font-size="none" text-anchor="none" style="mix-blend-mode: normal"><g transform="scale(5.12,5.12)"><path d="M25.04688,11c-0.26172,0.00391 -0.51172,0.10547 -0.69531,0.28906l-21.08594,20.91406c-0.39062,0.39063 -0.39453,1.02344 -0.00781,1.41406l5.97656,6.02344c0.39063,0.39453 1.02344,0.39844 1.41406,0.00781l14.35156,-14.23437l14.23438,14.35156c0.39063,0.39063 1.02344,0.39453 1.41406,0.00391l6.02344,-5.97266c0.19141,-0.1875 0.29688,-0.44141 0.29688,-0.70703c0.00391,-0.26562 -0.10156,-0.51953 -0.28906,-0.71094l-20.91406,-21.08203c-0.19141,-0.19531 -0.44922,-0.30078 -0.71875,-0.29687z"></path></g></g></svg>