<svg xmlns="http://www.w3.org/2000/svg" xmlns:xlink="http://www.w3.org/1999/xlink" viewBox="0,0,256,256" width="96px" height="96px" fill-rule="nonzero"><g fill="#00ffdc" fill-rule="nonzero" stroke="none" stroke-width="1" stroke-linecap="butt" stroke-linejoin="miter" stroke-miterlimit="10" stroke-dasharray="" stroke-dashoffset="0" font-family="none" font-weight="none" font-size="none" text-anchor="none" style="mix-blend-mode: normal"><g transform="scale(10.66667,10.66667)"><path d="M12,3.03711l-0.8457,1.48047c-0.87556,1.53214 -1.75155,3.06371 -2.62695,4.5957c-2.58804,0.64721 -5.17526,1.29406 -7.76367,1.94141l0.47266,1.89062c1.9845,-0.49631 3.96872,-0.99221 5.95313,-1.48828c-1.34483,2.35351 -2.69009,4.7068 -4.03516,7.06055l-0.83203,1.45703h19.35547l-0.83203,-1.45703c-0.60828,-1.06444 -1.21601,-2.12899 -1.82422,-3.19336c1.27275,0.21221 2.54536,0.42476 3.81836,0.63672l0.32031,-1.92188c-1.79533,-0.29892 -3.59089,-0.59927 -5.38672,-0.89844c-0.4126,-0.72206 -0.82569,-1.44396 -1.23828,-2.16602h7.46484v-1.94922h-8.57812c-0.85862,-1.50262 -1.7174,-3.00505 -2.57617,-4.50781z"></path></g></g></svg>