<svg xmlns="http://www.w3.org/2000/svg" xmlns:xlink="http://www.w3.org/1999/xlink" viewBox="0,0,256,256" width="256px" height="256px" fill-rule="nonzero"><g fill="#00ffdc" fill-rule="nonzero" stroke="none" stroke-width="1" stroke-linecap="butt" stroke-linejoin="miter" stroke-miterlimit="10" stroke-dasharray="" stroke-dashoffset="0" font-family="none" font-weight="none" font-size="none" text-anchor="none" style="mix-blend-mode: normal"><g transform="scale(3.55556,3.55556)"><path d="M48,59c-1.657,0 -3,-1.343 -3,-3v-8c0,-1.657 1.343,-3 3,-3h8c1.657,0 3,1.343 3,3v8c0,1.657 -1.343,3 -3,3zM32,59c-1.657,0 -3,-1.343 -3,-3v-8c0,-1.657 1.343,-3 3,-3h8c1.657,0 3,1.343 3,3v8c0,1.657 -1.343,3 -3,3zM16,59c-1.657,0 -3,-1.343 -3,-3v-8c0,-1.657 1.343,-3 3,-3h8c1.657,0 3,1.343 3,3v8c0,1.657 -1.343,3 -3,3zM48,43c-1.657,0 -3,-1.343 -3,-3v-8c0,-1.657 1.343,-3 3,-3h8c1.657,0 3,1.343 3,3v8c0,1.657 -1.343,3 -3,3zM32,43c-1.657,0 -3,-1.343 -3,-3v-8c0,-1.657 1.343,-3 3,-3h8c1.657,0 3,1.343 3,3v8c0,1.657 -1.343,3 -3,3zM16,43c-1.657,0 -3,-1.343 -3,-3v-8c0,-1.657 1.343,-3 3,-3h8c1.657,0 3,1.343 3,3v8c0,1.657 -1.343,3 -3,3zM48,27c-1.657,0 -3,-1.343 -3,-3v-8c0,-1.657 1.343,-3 3,-3h8c1.657,0 3,1.343 3,3v8c0,1.657 -1.343,3 -3,3zM32,27c-1.657,0 -3,-1.343 -3,-3v-8c0,-1.657 1.343,-3 3,-3h8c1.657,0 3,1.343 3,3v8c0,1.657 -1.343,3 -3,3zM16,27c-1.657,0 -3,-1.343 -3,-3v-8c0,-1.657 1.343,-3 3,-3h8c1.657,0 3,1.343 3,3v8c0,1.657 -1.343,3 -3,3z"></path></g></g></svg>