<svg xmlns="http://www.w3.org/2000/svg" xmlns:xlink="http://www.w3.org/1999/xlink" viewBox="0,0,256,256" width="150px" height="150px" fill-rule="nonzero"><g fill="#ffffff" fill-rule="nonzero" stroke="none" stroke-width="1" stroke-linecap="butt" stroke-linejoin="miter" stroke-miterlimit="10" stroke-dasharray="" stroke-dashoffset="0" font-family="none" font-weight="none" font-size="none" text-anchor="none" style="mix-blend-mode: normal"><g transform="scale(5.12,5.12)"><path d="M48,25.89453v-0.89453c0,-2.55469 -2.12891,-3.91406 -3.53906,-4.53516c-0.35547,-1.53125 -0.89062,-2.98828 -1.57422,-4.36328l2.48047,-1.82812l-0.44922,-0.77344c-1.28125,-2.21875 -3.81641,-2.32812 -5.34766,-2.15625c-1.05859,-1.12891 -2.23437,-2.14453 -3.52734,-3.00391l1.23047,-2.8125l-0.77344,-0.44531c-2.20312,-1.26953 -4.4375,-0.12109 -5.68359,0.78516c-1.46094,-0.44531 -3,-0.70703 -4.58203,-0.80469l-0.33984,-3.0625h-0.89453c-2.55078,0 -3.91016,2.12891 -4.53516,3.53906c-1.53125,0.35547 -2.98828,0.89063 -4.36328,1.57422l-1.82812,-2.48047l-0.77344,0.44922c-2.21875,1.28125 -2.32422,3.81641 -2.15625,5.34766c-1.12891,1.05859 -2.14453,2.23438 -3.00391,3.52734l-2.8125,-1.23437l-0.44531,0.77734c-1.27344,2.20313 -0.12109,4.4375 0.78516,5.68359c-0.44531,1.46094 -0.70703,3 -0.80469,4.58203l-3.0625,0.33984v0.89453c0,2.55469 2.12891,3.91406 3.53906,4.53516c0.35547,1.53125 0.89063,2.98828 1.57422,4.36328l-2.48047,1.82813l0.44922,0.77344c1.03906,1.80078 2.90625,2.21094 4.39063,2.21094c0.34766,0 0.66797,-0.02344 0.95703,-0.05469c1.05859,1.12891 2.23438,2.14453 3.52734,3.00391l-1.23047,2.8125l0.77344,0.44531c0.69922,0.40625 1.40625,0.56641 2.08203,0.56641c1.44531,0 2.74609,-0.73437 3.59766,-1.35547c1.46484,0.44531 3.00391,0.71094 4.58594,0.80859l0.33984,3.0625h0.89453c2.55078,0 3.91016,-2.12891 4.53516,-3.53906c1.53125,-0.35547 2.98828,-0.89062 4.36328,-1.57422l1.82813,2.48047l0.77344,-0.44531c2.21875,-1.28125 2.32813,-3.81641 2.15625,-5.35156c1.12891,-1.05469 2.14453,-2.23437 3.00391,-3.52344l2.8125,1.23047l0.44922,-0.77344c1.26953,-2.20312 0.12109,-4.4375 -0.78906,-5.68359c0.44531,-1.46484 0.71094,-3 0.80469,-4.58203zM15,26c-0.55078,0 -1,-0.44922 -1,-1c0,-0.55078 0.44922,-1 1,-1c0.55078,0 1,0.44922 1,1c0,0.55078 -0.44922,1 -1,1zM25,30c-2.75781,0 -5,-2.24219 -5,-5c0,-2.75781 2.24219,-5 5,-5c2.75781,0 5,2.24219 5,5c0,2.75781 -2.24219,5 -5,5zM35,26c-0.55078,0 -1,-0.44922 -1,-1c0,-0.55078 0.44922,-1 1,-1c0.55078,0 1,0.44922 1,1c0,0.55078 -0.44922,1 -1,1z"></path></g></g></svg>