<?xml version="1.0"?><svg fill="#00ffdc" xmlns="http://www.w3.org/2000/svg"  viewBox="0 0 50 50" width="100px" height="100px">    <path d="M 6.6679688 4 C 5.1969687 4 4 5.1969688 4 6.6679688 L 4 43.333984 C 4 44.803984 5.1969688 46 6.6679688 46 L 43.333984 46 C 44.803984 46 46 44.803031 46 43.332031 L 46 6.6679688 C 46 5.1969687 44.803031 4 43.332031 4 L 6.6679688 4 z M 11.625 20 L 15.648438 20 C 17.638438 20 19 21.365812 19 23.382812 C 19 25.364812 17.590266 26.722656 15.572266 26.722656 L 13.408203 26.722656 L 13.408203 30 L 11.625 30 L 11.625 20 z M 21 20 L 22.802734 20 L 22.802734 24.085938 L 27.705078 24.085938 L 27.705078 20 L 29.5 20 L 29.5 29.875 L 27.705078 29.875 L 27.705078 25.611328 L 22.802734 25.611328 L 22.802734 29.875 L 21 29.875 L 21 20 z M 32 20 L 36.023438 20 C 38.014437 20 39.375 21.365812 39.375 23.382812 C 39.375 25.364812 37.965266 26.722656 35.947266 26.722656 L 33.783203 26.722656 L 33.783203 30 L 32 30 L 32 20 z M 13.408203 21.496094 L 13.408203 25.240234 L 15.171875 25.240234 C 16.443875 25.240234 17.189453 24.575813 17.189453 23.382812 C 17.189453 22.155813 16.463734 21.496094 15.177734 21.496094 L 13.408203 21.496094 z M 33.783203 21.496094 L 33.783203 25.240234 L 35.546875 25.240234 C 36.818875 25.240234 37.564453 24.575813 37.564453 23.382812 C 37.564453 22.155813 36.838734 21.496094 35.552734 21.496094 L 33.783203 21.496094 z"/></svg>