<svg fill="#00ffdc" xmlns="http://www.w3.org/2000/svg"  viewBox="0 0 50 50" width="100px" height="100px"><path d="M 45 3 L 5 3 C 3.839844 3 3 3.839844 3 5 L 3 45 C 3 46.160156 3.839844 47 5 47 L 45 47 C 46.160156 47 47 46.160156 47 45 L 47 5 C 47 3.839844 46.160156 3 45 3 Z M 23.53125 26.828125 C 23.53125 29.738281 22.121094 30.175781 20.679688 30.175781 C 20.273438 30.175781 19.914063 30.113281 19.691406 30.027344 L 19.855469 28.378906 C 20.050781 28.4375 20.246094 28.453125 20.5 28.453125 C 21.070313 28.453125 21.550781 28.226563 21.550781 26.921875 L 21.550781 19.945313 L 23.53125 19.945313 Z M 26.558594 30.144531 C 25.75 30.144531 24.953125 29.9375 24.625 29.742188 L 24.910156 28.046875 C 25.316406 28.273438 26.003906 28.4375 26.574219 28.4375 C 27.503906 28.4375 27.953125 27.957031 27.953125 27.296875 C 27.953125 26.5625 27.503906 26.203125 26.648438 25.648438 C 25.269531 24.808594 24.746094 23.742188 24.746094 22.828125 C 24.746094 21.207031 25.824219 19.855469 27.941406 19.855469 C 28.601563 19.855469 29.230469 20.039063 29.53125 20.21875 L 29.214844 21.910156 C 28.929688 21.730469 28.496094 21.566406 27.925781 21.566406 C 27.085938 21.566406 26.679688 22.078125 26.679688 22.617188 C 26.679688 23.21875 26.980469 23.53125 28.074219 24.191406 C 29.410156 25.003906 29.90625 26.023438 29.90625 27.085938 C 29.902344 28.929688 28.539063 30.144531 26.558594 30.144531 Z"/></svg>