<?xml version="1.0"?><svg fill="#00ffdc" xmlns="http://www.w3.org/2000/svg"  viewBox="0 0 50 50" width="100px" height="100px">    <path d="M 0.02734375 11 L 8.4238281 24.976562 L 0 39 L 6.9882812 39 L 12.5 29.826172 L 18.011719 39 L 25 39 L 16.576172 24.976562 L 24.972656 11 L 17.982422 11 L 12.5 20.128906 L 7.0175781 11 L 0.02734375 11 z M 27 11 L 27 39 L 37.173828 39 C 45.085828 39 50 33.636 50 25 C 50 16.364 45.085828 11 37.173828 11 L 27 11 z M 33 17 L 37.119141 17 C 41.492141 17 44 19.923484 44 25.021484 C 44 30.092484 41.492141 33 37.119141 33 L 33 33 L 33 17 z"/></svg>