<svg fill="#00ffdc" xmlns="http://www.w3.org/2000/svg"  viewBox="0 0 24 24" width="24px" height="24px"><path d="M 21.703125 2.4980469 C 19.463125 2.4980469 18.014453 2.9182344 16.314453 4.2402344 C 15.004453 3.9292344 13.644922 3.7851562 12.294922 3.7851562 C 10.799922 3.7851562 9.308375 3.94025 7.859375 4.28125 C 6.134375 2.94525 4.6849219 2.5 2.4199219 2.5 C 1.9359219 3.465 1.6894531 3.9985 1.6894531 5.0625 C 1.6894531 5.8735 1.8142188 6.6945625 2.0742188 7.4765625 C 0.69421875 9.0655625 0 11.024656 0 13.097656 C 0 14.675656 0.28076562 16.363828 1.0097656 17.798828 C 2.9797656 21.633828 8.4990625 21.498047 12.289062 21.498047 C 16.019063 21.498047 21.23 21.589828 23.125 17.798828 C 23.84 16.349828 24 14.675656 24 13.097656 L 23.998047 13.097656 C 23.998047 11.024656 23.423828 9.0512656 22.048828 7.4472656 C 22.303828 6.6812656 22.433594 5.8745 22.433594 5.0625 C 22.433594 3.9985 22.193125 3.4630469 21.703125 2.4980469 z M 7.0019531 11.509766 C 7.9519531 11.509766 8.8657813 11.677641 9.8007812 11.806641 C 10.550781 11.920641 11.297641 11.964844 12.056641 11.964844 C 12.821641 11.964844 13.565547 11.920641 14.310547 11.806641 C 15.260547 11.677641 16.166328 11.509766 17.111328 11.509766 C 19.450328 11.509766 20.785156 13.423703 20.785156 15.595703 C 20.785156 19.944703 16.770859 20.607422 13.255859 20.607422 L 10.845703 20.607422 C 7.3457031 20.607422 3.3261719 19.940703 3.3261719 15.595703 C 3.3261719 13.423703 4.6609531 11.509766 7.0019531 11.509766 z M 7.4707031 12.869141 C 6.1817031 12.869141 5.6347656 14.562656 5.6347656 15.597656 C 5.6347656 16.632656 6.1807031 18.322266 7.4707031 18.322266 C 8.7607031 18.322266 9.3046875 16.630703 9.3046875 15.595703 C 9.3046875 14.560703 8.7597031 12.869141 7.4707031 12.869141 z M 16.654297 12.869141 C 15.364297 12.869141 14.820312 14.560703 14.820312 15.595703 C 14.820312 16.630703 15.364297 18.322266 16.654297 18.322266 C 17.944297 18.322266 18.490234 16.630703 18.490234 15.595703 C 18.490234 14.560703 17.944297 12.869141 16.654297 12.869141 z"/></svg>